<svg xmlns="http://www.w3.org/2000/svg" width="55" height="55" viewBox="0 0 55 55" fill="none"><path d="M42.6482 10H18.2435C17.9067 10 17.606 10.1203 17.3655 10.3007C17.0407 10.5653 10.8704 16.0982 10.4735 16.5913C10.1848 16.9762 10.0044 17.4333 10.0044 17.9384V42.6197C10.0044 43.9428 11.0629 45.0012 12.3739 45.0012H37.0672C37.6445 45.0012 38.1738 44.7727 38.5587 44.3998C38.9676 44.0029 44.2238 37.7364 44.5847 37.2793C44.8493 36.9425 45.0177 36.5095 45.0177 36.0525V12.3575C45.0056 11.0585 43.9472 10 42.6482 10Z" fill="white"></path><path d="M30.5373 10.8784C34.4704 10.8784 38.3915 10.8784 42.3246 10.8784C43.347 10.8784 44.1288 11.6482 44.1288 12.6585C44.1288 20.2963 44.1168 27.934 44.1408 35.5717C44.1408 36.7264 43.4673 37.5443 42.5291 37.8931C42.2284 38.0014 41.8796 38.0134 41.5548 38.0134C34.0254 38.0254 26.4959 38.0134 18.9784 38.0254C18.1966 38.0254 17.5712 37.7728 17.1983 37.0391C17.1261 36.8948 17.066 36.7264 17.054 36.558C17.0179 36.2092 17.0179 35.8604 17.0059 35.5116C17.0059 27.9941 17.0059 20.4767 17.0059 12.9592C17.0059 12.5503 17.0419 12.1654 17.2464 11.8046C17.5591 11.2393 18.0282 10.9386 18.6657 10.9145C19.0506 10.8904 19.4475 10.9145 19.8324 10.9145C23.4047 10.8784 26.965 10.8784 30.5373 10.8784ZM30.9222 30.9891C31.728 31.0372 32.6301 30.8929 33.4961 30.5922C35.18 30.0028 36.5753 28.9925 37.6939 27.6092C38.0066 27.2244 38.0908 26.7793 37.8743 26.3463C37.6337 25.8772 37.2248 25.6246 36.6715 25.6728C36.3107 25.7088 36.0701 25.9374 35.8536 26.19C35.0237 27.1402 34.0735 27.8979 32.8707 28.343C31.7641 28.7399 30.6215 28.8 29.5029 28.4632C28.1437 28.0543 27.0011 27.2845 26.111 26.1539C25.9907 26.0095 25.8464 25.8772 25.678 25.793C25.1728 25.5525 24.6075 25.6848 24.2707 26.0937C23.9339 26.5147 23.9219 27.1161 24.2707 27.5732C24.836 28.3189 25.5457 28.9323 26.3034 29.4615C27.6626 30.4118 29.142 30.965 30.9222 30.9891ZM27.7829 19.334C27.7949 18.7206 27.2657 18.1553 26.6643 18.1433C26.0509 18.1433 25.4495 18.6966 25.4495 19.2739C25.4495 19.9475 25.9426 20.4767 26.5921 20.5008C27.1213 20.5248 27.843 19.9956 27.7829 19.334ZM36.5512 19.334C36.5512 18.7326 35.9979 18.1553 35.3965 18.1553C34.7831 18.1553 34.2419 18.6845 34.2298 19.2859C34.2178 19.9595 34.6989 20.4887 35.3244 20.5008C35.9859 20.5128 36.5392 19.9836 36.5512 19.334Z" fill="black"></path><path d="M30.9193 30.9895C29.1392 30.9655 27.6477 30.4122 26.3006 29.462C25.5308 28.9207 24.8332 28.3193 24.2679 27.5736C23.919 27.1165 23.9311 26.5151 24.2679 26.0942C24.6046 25.6732 25.17 25.5409 25.6751 25.7935C25.8435 25.8777 25.9879 26.01 26.1081 26.1543C26.9982 27.2729 28.1408 28.0547 29.5 28.4637C30.6186 28.8005 31.7492 28.7403 32.8678 28.3434C34.0706 27.9104 35.0328 27.1526 35.8507 26.1904C36.0672 25.9378 36.3078 25.7093 36.6686 25.6732C37.2219 25.6251 37.6429 25.8777 37.8714 26.3468C38.0879 26.7798 38.0037 27.2248 37.691 27.6097C36.5724 28.9929 35.1652 30.0032 33.4933 30.5926C32.6273 30.8933 31.7372 31.0376 30.9193 30.9895Z" fill="white"></path><path d="M27.7812 19.3316C27.8413 19.9931 27.1196 20.5223 26.5904 20.4983C25.9409 20.4742 25.4478 19.945 25.4478 19.2714C25.4478 18.6941 26.0492 18.1288 26.6626 18.1408C27.264 18.1528 27.7932 18.7182 27.7812 19.3316Z" fill="white"></path><path d="M36.5501 19.3323C36.5501 19.9818 35.9848 20.511 35.3233 20.499C34.6978 20.487 34.2167 19.9457 34.2287 19.2842C34.2408 18.6828 34.794 18.1536 35.3954 18.1536C35.9968 18.1536 36.5501 18.7309 36.5501 19.3323Z" fill="white"></path></svg>