<svg xmlns="http://www.w3.org/2000/svg" width="55" height="55" viewBox="0 0 55 55" fill="none"><path d="M23.3994 24.2206L18.9309 40.909C17.2511 40.8962 14.9674 40.8968 13.2869 40.909L5 15.0796C6.97985 15.0893 9.48325 15.0886 11.4631 15.0796L16.1076 32.752L20.4932 15.0764H26.391C27.8043 20.7927 30.776 32.7488 30.776 32.7488L35.4141 15.0764L41.8181 15L33.5145 40.8197C31.8237 40.8114 27.8615 40.8268 27.8615 40.8197C27.8615 40.8127 23.3994 24.2206 23.3994 24.2206Z" fill="white"></path><path d="M45.2298 40.9068C43.3684 40.8377 41.8373 40.1186 40.9878 38.3211C40.1644 36.5817 40.2861 34.8443 41.4109 33.2686C42.8605 31.237 45.854 30.759 47.9646 32.1709C49.9262 33.4835 50.5918 36.2991 49.4216 38.4696C48.5153 40.1496 47.0456 40.8425 45.2298 40.9068Z" fill="white"></path></svg>