<svg xmlns="http://www.w3.org/2000/svg" width="55" height="55" viewBox="0 0 55 55" fill="none"><path d="M37.3009 24.8333L40.2655 14H45L37.4336 40H32.7876L29.646 28.562C28.8496 25.6731 28.1268 22.885 27.4779 20.1977C26.5044 24.1279 25.7965 26.916 25.354 28.562L22.2566 40H17.5664L10 14H14.7788L17.6991 24.8333C18.4956 27.7558 19.292 30.8463 20.0885 34.1047C20.6195 31.686 21.3864 28.5956 22.3894 24.8333L25.3097 14H29.7345L32.6106 24.8333C33.8201 29.5026 34.6018 32.5762 34.9558 34.0543C35.3097 32.5762 36.0914 29.5026 37.3009 24.8333Z" fill="white"></path></svg>