<svg xmlns="http://www.w3.org/2000/svg" width="569" height="156" viewBox="0 0 569 156" fill="none"><path d="M97.7105 40.6832V64.3453H77.2414V114.368C77.2414 117.966 78.1369 120.456 79.9289 121.84C81.721 123.086 84.8911 123.708 89.4402 123.708H97.7105V147.786C93.8504 148.339 88.8882 148.616 82.823 148.616C69.4526 148.616 59.8043 146.264 53.8772 141.558C47.95 136.716 44.9864 128.828 44.9864 117.896V64.3453H29.0664V40.6832H44.9864V8.92615H77.2414V40.6832H97.7105Z" fill="url(#paint0_radial_2324_9023)"></path><path d="M176.332 38.1926C187.635 38.1926 196.595 41.652 203.211 48.5707C209.965 55.351 213.343 65.0374 213.343 77.6295V147.786H181.088V84.0639C181.088 71.8869 175.368 65.7984 163.927 65.7984C158.138 65.7984 153.313 67.7357 149.454 71.6101C145.594 75.4847 143.665 80.9505 143.665 88.0076V147.786H111.41V0.00109863H143.665V54.7976C151.797 43.7276 162.687 38.1926 176.332 38.1926Z" fill="url(#paint1_radial_2324_9023)"></path><path d="M337.607 97.3481V103.782H258.624C259.727 111.116 262.415 116.72 266.688 120.595C270.961 124.47 276.406 126.407 283.022 126.407C293.497 126.407 300.666 122.394 304.525 114.368H335.125C332.231 125.438 326.097 134.225 316.724 140.729C307.35 147.094 296.116 150.277 283.022 150.277C266.482 150.277 253.111 145.157 242.911 134.917C232.71 124.678 227.611 111.116 227.611 94.2348C227.611 77.2146 232.642 63.6539 242.704 53.5525C252.629 43.3128 265.93 38.1929 282.609 38.1929C299.15 38.1929 312.52 43.5203 322.719 54.1752C332.643 64.9684 337.607 79.3595 337.607 97.3481ZM282.195 62.0626C268.963 62.0626 261.175 69.1197 258.832 83.2339H305.972C304.869 76.592 302.25 71.4029 298.115 67.6667C293.98 63.9306 288.673 62.0626 282.195 62.0626Z" fill="url(#paint2_radial_2324_9023)"></path><path d="M414.516 39.0225C415.067 39.0225 417.411 39.1608 421.546 39.4375V68.9114H413.276C394.391 68.9114 384.949 78.5977 384.949 97.9702V147.786H352.695V40.683H384.122V60.6089C389.084 46.2179 399.215 39.0225 414.516 39.0225Z" fill="url(#paint3_radial_2324_9023)"></path><path d="M536.288 97.3481V103.782H457.307C458.409 111.116 461.098 116.72 465.371 120.595C469.643 124.47 475.087 126.407 481.704 126.407C492.18 126.407 499.347 122.394 503.207 114.368H533.807C530.912 125.438 524.778 134.225 515.406 140.729C506.033 147.094 494.799 150.277 481.704 150.277C465.163 150.277 451.793 145.157 441.593 134.917C431.393 124.678 426.293 111.116 426.293 94.2348C426.293 77.2146 431.324 63.6539 441.386 53.5525C451.31 43.3128 464.612 38.1929 481.291 38.1929C497.831 38.1929 511.202 43.5203 521.402 54.1752C531.326 64.9684 536.288 79.3595 536.288 97.3481ZM480.877 62.0626C467.644 62.0626 459.857 69.1197 457.513 83.2339H504.654C503.552 76.592 500.933 71.4029 496.798 67.6667C492.663 63.9306 487.356 62.0626 480.877 62.0626Z" fill="url(#paint4_radial_2324_9023)"></path><defs><radialGradient id="paint0_radial_2324_9023" cx="0" cy="0" r="1" gradientUnits="userSpaceOnUse" gradientTransform="translate(93 158.5) rotate(-111.743) scale(90.4337 91.4415)"><stop stop-color="#505050"></stop><stop offset="0.600962" stop-color="#E5E5E5"></stop></radialGradient><radialGradient id="paint1_radial_2324_9023" cx="0" cy="0" r="1" gradientUnits="userSpaceOnUse" gradientTransform="translate(162 151.5) rotate(-93.8353) scale(89.7009 170.044)"><stop stop-color="#505050"></stop><stop offset="0.600962" stop-color="#E5E5E5"></stop></radialGradient><radialGradient id="paint2_radial_2324_9023" cx="0" cy="0" r="1" gradientUnits="userSpaceOnUse" gradientTransform="translate(273 156.5) rotate(-83.8627) scale(93.5361 205.282)"><stop stop-color="#505050"></stop><stop offset="0.600962" stop-color="#E5E5E5"></stop></radialGradient><radialGradient id="paint3_radial_2324_9023" cx="0" cy="0" r="1" gradientUnits="userSpaceOnUse" gradientTransform="translate(370 154.5) rotate(-77.7047) scale(79.8311 94.7982)"><stop stop-color="#505050"></stop><stop offset="0.600962" stop-color="#E5E5E5"></stop></radialGradient><radialGradient id="paint4_radial_2324_9023" cx="0" cy="0" r="1" gradientUnits="userSpaceOnUse" gradientTransform="translate(481 161.5) rotate(-87.8676) scale(94.0651 169.665)"><stop stop-color="#505050"></stop><stop offset="0.600962" stop-color="#E5E5E5"></stop></radialGradient></defs></svg>