<svg xmlns="http://www.w3.org/2000/svg" width="55" height="55" viewBox="0 0 55 55" fill="none"><g clip-path="url(#clip0_1968_21961)"><mask id="mask0_1968_21961" style="mask-type:luminance" maskUnits="userSpaceOnUse" x="-117" y="-178" width="290" height="411"><path d="M173 -177.107H-116.321V232.063H173V-177.107Z" fill="white"></path></mask><g mask="url(#mask0_1968_21961)"><path d="M34.0016 21.3299L28.7527 16.1783L23.6496 21.3299H20.685L31.6202 10.4434H20.1504L9.21517 21.3299H5.08411V22.059H49.8455V21.3299H34.0016Z" fill="white"></path></g><mask id="mask1_1968_21961" style="mask-type:luminance" maskUnits="userSpaceOnUse" x="-117" y="-178" width="290" height="411"><path d="M173 -177.107H-116.321V232.063H173V-177.107Z" fill="white"></path></mask><g mask="url(#mask1_1968_21961)"><path d="M5.08411 33.7229H20.7822L25.9339 38.826L31.1342 33.7229H33.9044L23.0664 44.4637H34.5362L40.2225 38.826L45.3742 33.7229H49.8455V32.9453H5.08411V33.7229Z" fill="white"></path></g><mask id="mask2_1968_21961" style="mask-type:luminance" maskUnits="userSpaceOnUse" x="-117" y="-178" width="290" height="411"><path d="M173 -177.107H-116.321V232.063H173V-177.107Z" fill="white"></path></mask><g mask="url(#mask2_1968_21961)"><path d="M13.735 26.0458C13.9294 26.0458 14.1724 26.0944 14.3182 26.143C14.5126 26.1916 14.707 26.2888 14.9014 26.386L15.3388 25.3168C14.8528 25.0738 14.3182 24.9766 13.7836 24.9766C13.2976 24.9766 12.8602 25.0738 12.4713 25.3168C12.0825 25.5112 11.8395 25.8514 11.5965 26.2402C11.4021 26.629 11.3049 27.115 11.3049 27.601C11.3049 28.4272 11.4993 29.059 11.9367 29.5451C12.3255 29.9825 12.9088 30.2255 13.6864 30.2255C14.221 30.2255 14.707 30.1283 15.1444 29.9339V28.7674C14.95 28.8646 14.707 28.9132 14.5126 29.0104C14.3182 29.059 14.0752 29.1076 13.8808 29.1076C13.1518 29.1076 12.763 28.6216 12.763 27.6496C12.763 27.1636 12.8602 26.8234 13.0546 26.5318C13.1518 26.1916 13.4434 26.0458 13.735 26.0458Z" fill="white"></path></g><mask id="mask3_1968_21961" style="mask-type:luminance" maskUnits="userSpaceOnUse" x="-117" y="-178" width="290" height="411"><path d="M173 -177.107H-116.321V232.063H173V-177.107Z" fill="white"></path></mask><g mask="url(#mask3_1968_21961)"><path d="M19.8101 29.0083C19.5671 29.0083 19.3241 28.9596 19.0325 28.911C18.7409 28.8138 18.4979 28.7166 18.2063 28.6194V29.8345C18.4493 29.9317 18.6923 30.0289 18.9353 30.0775C19.1783 30.1261 19.4699 30.1261 19.7615 30.1261C20.1503 30.1261 20.5392 30.0775 20.8308 29.9317C21.1224 29.7859 21.3654 29.5915 21.5112 29.3484C21.657 29.1054 21.7542 28.8138 21.7542 28.5222C21.7542 28.182 21.657 27.8904 21.5112 27.6474C21.3654 27.4044 21.0252 27.21 20.5878 27.0156C20.1503 26.8212 19.8587 26.6754 19.7615 26.5782C19.6643 26.481 19.6157 26.4324 19.6157 26.3352C19.6157 26.238 19.6643 26.1894 19.7129 26.0922C19.8101 26.0436 19.9073 25.995 20.1017 25.995C20.442 25.995 20.8308 26.0922 21.3168 26.3352L21.7542 25.266C21.2196 25.023 20.6849 24.9258 20.1503 24.9258C19.5671 24.9258 19.0811 25.0716 18.7409 25.3146C18.4007 25.5576 18.2549 25.9464 18.2549 26.3838C18.2549 26.6268 18.3035 26.8698 18.3521 27.0156C18.4493 27.21 18.5465 27.3558 18.7409 27.5016C18.9353 27.6474 19.1783 27.7932 19.4699 27.939C19.8587 28.0848 20.0531 28.2306 20.1503 28.2792C20.2475 28.3278 20.2961 28.3764 20.3447 28.425C20.3933 28.4736 20.3933 28.5222 20.3933 28.6194C20.3933 28.7166 20.3447 28.8138 20.2475 28.911C20.1989 29.0082 20.0045 29.0083 19.8101 29.0083Z" fill="white"></path></g><mask id="mask4_1968_21961" style="mask-type:luminance" maskUnits="userSpaceOnUse" x="-117" y="-178" width="290" height="411"><path d="M173 -177.107H-116.321V232.063H173V-177.107Z" fill="white"></path></mask><g mask="url(#mask4_1968_21961)"><path d="M26.274 29.0083C26.031 29.0083 25.788 28.9596 25.4964 28.911C25.2048 28.8138 24.9618 28.7166 24.6702 28.6194V29.8345C24.9132 29.9317 25.1562 30.0289 25.3992 30.0775C25.6422 30.1261 25.9338 30.1261 26.2254 30.1261C26.6142 30.1261 27.003 30.0775 27.2946 29.9317C27.5862 29.7859 27.8292 29.5915 27.975 29.3484C28.1208 29.1054 28.218 28.8138 28.218 28.5222C28.218 28.182 28.1208 27.8904 27.975 27.6474C27.7806 27.4044 27.489 27.21 27.0516 27.0156C26.6142 26.8212 26.3226 26.6754 26.2254 26.5782C26.1282 26.481 26.0796 26.4324 26.0796 26.3352C26.0796 26.238 26.1282 26.1894 26.2254 26.0922C26.3226 26.0436 26.4198 25.995 26.6142 25.995C26.9544 25.995 27.3432 26.0922 27.8292 26.3352L28.2666 25.266C27.732 25.023 27.1974 24.9258 26.6628 24.9258C26.0796 24.9258 25.5936 25.0716 25.2534 25.3146C24.9132 25.5576 24.7674 25.9464 24.7674 26.3838C24.7674 26.6268 24.816 26.8698 24.8646 27.0156C24.9618 27.21 25.059 27.3558 25.2534 27.5016C25.4478 27.6474 25.6908 27.7932 25.9824 27.939C26.3712 28.0848 26.5656 28.2306 26.6628 28.2792C26.76 28.3278 26.8086 28.3764 26.8572 28.425C26.9058 28.4736 26.9058 28.5222 26.9058 28.6194C26.9058 28.7166 26.8572 28.8138 26.76 28.911C26.6142 29.0082 26.4684 29.0083 26.274 29.0083Z" fill="white"></path></g><mask id="mask5_1968_21961" style="mask-type:luminance" maskUnits="userSpaceOnUse" x="-117" y="-178" width="290" height="411"><path d="M173 -177.107H-116.321V232.063H173V-177.107Z" fill="white"></path></mask><g mask="url(#mask5_1968_21961)"><path d="M35.7025 27.4066C35.7025 26.629 35.4595 25.9972 35.0221 25.6084C34.5847 25.171 33.9529 24.9766 33.1267 24.9766H31.3771V30.0311H33.0295C33.8557 30.0311 34.5361 29.788 34.9735 29.3506C35.4595 28.9132 35.7025 28.2814 35.7025 27.4066ZM34.0015 28.573C33.8071 28.816 33.5155 28.9132 33.0781 28.9132H32.7865V26.0944H33.1753C33.5641 26.0944 33.8071 26.1916 34.0015 26.4346C34.1959 26.6776 34.2931 27.0178 34.2931 27.4552C34.2931 27.9898 34.1959 28.33 34.0015 28.573Z" fill="white"></path></g><mask id="mask6_1968_21961" style="mask-type:luminance" maskUnits="userSpaceOnUse" x="-117" y="-178" width="290" height="411"><path d="M173 -177.107H-116.321V232.063H173V-177.107Z" fill="white"></path></mask><g mask="url(#mask6_1968_21961)"><path d="M41.8263 29.1076L42.0693 30.0797H43.5759L41.9235 24.9766H40.0766L38.4242 30.0797H39.9308L40.1738 29.1076H41.8263ZM40.8542 26.386C40.9028 26.0944 40.9514 25.9 41 25.8028C41 25.9486 41.0486 26.143 41.1458 26.4346C41.243 26.7262 41.2916 26.9692 41.3402 27.1636L41.5346 27.9898H40.4654C40.6598 27.2122 40.8056 26.6776 40.8542 26.386Z" fill="white"></path></g></g><defs><clipPath id="clip0_1968_21961"><rect width="55" height="55" fill="white"></rect></clipPath></defs></svg>