<svg xmlns="http://www.w3.org/2000/svg" width="55" height="55" viewBox="0 0 55 55" fill="none"><path d="M14.3334 28C14.3334 22.4122 14.3334 19.6183 16.1059 17.8548C16.1582 17.8029 16.2114 17.7518 16.2655 17.7016C18.1025 16 21.0128 16 26.8334 16C32.654 16 35.5643 16 37.4012 17.7016C37.4554 17.7518 37.5085 17.8029 37.5609 17.8548C39.3334 19.6183 39.3334 22.4122 39.3334 28C39.3334 33.5878 39.3334 36.3817 37.5609 38.1451C37.5085 38.1972 37.4554 38.2481 37.4012 38.2984C35.5643 40 32.654 40 26.8334 40C21.0128 40 18.1025 40 16.2655 38.2984C16.2114 38.2481 16.1582 38.1972 16.1059 38.1451C14.3334 36.3817 14.3334 33.5878 14.3334 28Z" fill="white"></path></svg>