<svg xmlns="http://www.w3.org/2000/svg" width="16" height="16" viewBox="0 0 16 16" fill="none"><path fill-rule="evenodd" clip-rule="evenodd" d="M3.67191 10.1669L5.80991 12.3069H5.80791C7.53391 14.0289 10.1449 14.7429 11.7679 13.1169C13.2399 11.6669 13.5739 9.43693 12.5279 7.72893L10.7129 4.24493C10.3599 3.72093 9.86391 3.02493 9.37591 3.28693C8.88591 3.54793 9.37591 4.84693 9.37591 4.84693L10.1559 6.77893L6.42991 2.86593C5.59291 1.90793 4.96291 1.75793 4.50191 2.21893C4.17191 2.54893 4.23591 3.07493 4.97891 3.81693C5.47991 4.31993 6.86691 5.77393 6.86691 5.77393C7.03691 5.94793 6.94991 6.25893 6.77391 6.42893C6.68283 6.52093 6.56268 6.57853 6.43391 6.59193C6.37462 6.5925 6.31585 6.5808 6.2613 6.55757C6.20675 6.53433 6.15759 6.50007 6.11691 6.45693C6.11691 6.45693 3.71691 3.98793 3.31391 3.58693C2.96991 3.24093 2.51091 3.04693 2.11991 3.43693C1.71191 3.84293 1.84691 4.50193 2.22991 4.88393C2.57491 5.22993 4.53991 7.18093 4.91491 7.55393L4.97691 7.61393C5.14691 7.78893 5.24591 8.24193 5.06991 8.41393C4.87691 8.60193 4.61691 8.74393 4.39191 8.68693C4.2195 8.64207 4.06428 8.54706 3.94591 8.41393C3.94591 8.41393 2.50091 6.83993 1.89191 6.22993C1.48491 5.82393 0.992913 5.89693 0.662913 6.22993C0.137913 6.75393 0.925913 7.50993 2.39291 8.92093C2.77691 9.28893 3.20691 9.70193 3.67191 10.1669ZM12.1439 2.94793C12.5159 2.65793 13.0939 2.66793 13.4469 3.19193V3.18993L15.0099 6.19593L15.0459 6.26993C15.9309 8.13993 15.3919 10.3629 14.5339 11.4289L14.4989 11.4729C14.2879 11.7369 14.1549 11.9029 13.7589 12.0829C15.1409 10.2279 14.7219 8.60493 13.5109 6.62693L11.9429 3.87993L11.9409 3.84293C11.9239 3.54293 11.9019 3.13293 12.1439 2.94793Z" fill="white" fill-opacity="0.6"></path></svg>