<svg xmlns="http://www.w3.org/2000/svg" width="16" height="16" viewBox="0 0 16 16" fill="none"><path d="M9.68401 6.1053L9.76001 6.3333H13.8933C13.9641 6.33339 14.0331 6.35601 14.0902 6.3979C14.1472 6.43979 14.1895 6.49876 14.2108 6.56627C14.2321 6.63379 14.2314 6.70633 14.2087 6.7734C14.186 6.84047 14.1426 6.89858 14.0847 6.9393L10.864 9.20397L10.6613 9.34663L10.7393 9.5813L12.0253 13.4546C12.0474 13.5217 12.0476 13.594 12.026 13.6612C12.0043 13.7284 11.9619 13.7869 11.9048 13.8284C11.8477 13.87 11.7789 13.8923 11.7083 13.8922C11.6377 13.8921 11.569 13.8696 11.512 13.828L8.19734 11.398L8.00001 11.2533L7.80268 11.398L4.48868 13.8286C4.43169 13.8703 4.36296 13.8928 4.29237 13.8929C4.22178 13.893 4.15299 13.8706 4.0959 13.8291C4.03882 13.7876 3.99638 13.729 3.97472 13.6618C3.95305 13.5947 3.95327 13.5223 3.97534 13.4553L5.26068 9.58197L5.33868 9.34663L5.13601 9.20397L1.91601 6.9393C1.85814 6.89861 1.81472 6.84056 1.79203 6.77356C1.76934 6.70656 1.76855 6.63407 1.78978 6.56659C1.81101 6.49911 1.85316 6.44013 1.91013 6.39819C1.9671 6.35625 2.03594 6.33353 2.10668 6.3333H6.24001L6.31601 6.1053L7.68401 2.00263C7.70624 1.93643 7.7487 1.87887 7.8054 1.8381C7.8621 1.79733 7.93017 1.77539 8.00001 1.77539C8.06985 1.77539 8.13792 1.79733 8.19462 1.8381C8.25132 1.87887 8.29378 1.93643 8.31601 2.00263L9.68401 6.1053Z" stroke="white" stroke-opacity="0.9"></path></svg>