<svg xmlns="http://www.w3.org/2000/svg" width="16" height="16" viewBox="0 0 16 16" fill="none"><path d="M12.344 11.458C12.8784 10.9539 13.3017 10.3438 13.5868 9.66671C13.872 8.98966 14.0127 8.26054 14 7.526C14 4.483 11.391 2 8.051 2C4.711 2 2 4.483 2 7.527C2 10.578 4.712 13.053 8.059 13.053C8.65295 13.0538 9.24429 12.9744 9.817 12.817C9.987 12.9657 10.1717 13.1037 10.371 13.231C11.155 13.741 11.997 13.999 12.883 13.999C12.9568 14.0028 13.03 13.9845 13.0933 13.9464C13.1565 13.9082 13.207 13.852 13.238 13.785C13.2687 13.7244 13.2822 13.6565 13.2769 13.5888C13.2716 13.5211 13.2478 13.4561 13.208 13.401C12.7758 12.8228 12.4825 12.1528 12.351 11.443V11.457L12.344 11.458Z" fill="white" fill-opacity="0.6"></path></svg>