<svg xmlns="http://www.w3.org/2000/svg" width="55" height="55" viewBox="0 0 55 55" fill="none"><path d="M34.9529 37.9715C34.554 37.3227 33.9538 36.2809 33.5623 35.6294C32.5585 33.9519 31.3856 32.0061 30.3733 30.3328C30.3733 30.3328 30.4319 30.3196 30.6808 30.2504C33.0351 29.5974 35.3804 28.9132 37.6939 28.1249C39.4206 27.5369 41.1128 26.8569 42.8104 26.1922L43.3598 25.9688V27.5009L38.1462 37.9578C38.1552 37.9599 34.9529 37.9715 34.9529 37.9715Z" fill="white"></path><path d="M27.5073 37.9398L24.0525 37.962C22.943 36.3971 20.537 32.481 20.5454 32.3991C23.0085 32.0092 25.3433 31.5601 27.5063 31.0312C27.4984 32.0943 27.5073 37.9398 27.5073 37.9398Z" fill="white"></path><path d="M15.2061 32.9738C13.5683 33.1423 12.4429 31.8257 12.3431 30.5318C12.2374 29.1354 13.4082 27.7966 14.8062 27.7094C16.4784 27.6038 17.5488 28.8411 17.6787 30.1445C17.8235 31.5954 16.6791 32.866 15.2061 32.9738Z" fill="white"></path><path d="M47.6563 17.5711C46.5615 17.3402 44.5185 17.3032 43.4095 17.3223V16.8034L38.0733 16.7717C38.0881 18.8037 38.0849 21.1818 38.0902 23.2138C38.0902 23.4541 38.0627 23.6808 37.92 23.8842C37.8344 24.0063 37.7747 24.0205 37.6712 23.8927C37.3562 23.5061 37.0619 23.1031 36.7894 22.6854C35.5494 20.776 34.1139 18.659 32.8337 16.776C32.8337 16.776 27.5398 16.776 27.5398 16.7723V16.776C27.535 17.2372 27.5171 17.9431 27.5097 18.4038C27.4748 20.5768 27.5567 22.7504 27.4759 24.9235C27.4727 25.0164 27.5102 25.1248 27.4072 25.2294C27.0099 24.7185 26.7087 24.1669 26.3859 23.6285C25.0513 21.4016 23.6274 18.9696 22.2923 16.7432L16.9297 16.7363L16.9075 22.7795C15.6548 23.1239 13.7803 23.8816 12.9133 24.2641C11.072 25.0761 9.26774 25.893 7.57706 27.003C6.79776 27.5155 6.0528 28.0755 5.4822 28.8284C4.86668 29.6405 4.98662 30.34 5.87898 30.815C6.19598 30.984 6.51298 31.1113 7.25266 31.2841C7.95535 31.4484 8.80122 31.5182 9.32744 31.5287C9.44315 31.5314 9.64127 31.5287 9.64127 31.5287C9.59482 31.2421 9.56869 30.9526 9.56308 30.6623C9.55621 30.1566 9.61169 29.5464 9.68882 29.1967C9.72792 29.0202 9.90333 28.4871 9.90333 28.4871C9.78242 28.4102 9.68385 28.3029 9.6175 28.1759C9.35333 27.5773 9.57048 27.1192 9.99737 26.6828C10.7899 25.8782 11.7641 25.2072 12.7574 24.7079C13.7665 24.2007 15.7589 23.3305 16.9059 22.9681L16.9218 25.3028C17.2046 25.3879 17.4805 25.4946 17.747 25.6219C18.9284 26.2242 19.9845 27.535 20.3222 29.0757C20.4173 29.5084 20.4807 30.144 20.5134 30.5883C20.5134 30.5883 20.58 30.5809 20.7475 30.5513C22.6426 30.2132 24.5309 29.8439 26.406 29.4075C31.8912 28.1315 37.2823 26.5544 42.4733 24.347C44.2585 23.5878 46.0057 22.753 47.6076 21.6451C48.3679 21.1194 49.105 20.5626 49.5757 19.7383C49.7712 19.3955 49.8573 19.0996 49.787 18.8354C49.73 18.6278 49.432 17.9462 47.6563 17.5711Z" fill="white"></path><path d="M43.4216 21.126L43.4269 18.1055C43.4269 18.1055 43.5807 18.1271 43.6805 18.1514C44.174 18.2708 44.6315 18.441 44.91 18.9101C44.9683 18.9998 45.0032 19.1027 45.0116 19.2094C45.02 19.3161 45.0016 19.4232 44.958 19.5209C44.6669 20.2341 44.0393 20.7329 43.4216 21.126Z" fill="black"></path></svg>