<svg xmlns="http://www.w3.org/2000/svg" width="260" height="149" viewBox="0 0 260 149" fill="none"><path d="M102.147 117.513H78.0721C76.8454 115.162 76.1809 112.197 76.0787 108.619C70.7628 115.775 62.329 119.353 50.7775 119.353C42.0881 119.353 35.0855 117.206 29.7697 112.913C24.556 108.619 21.9492 102.69 21.9492 95.1252C21.9492 80.4044 32.2743 72.1751 52.924 70.4372L65.3447 69.3638C72.194 68.6482 75.6186 66.0414 75.6186 61.5433C75.6186 56.2275 71.5806 53.5695 63.5046 53.5695C58.5977 53.5695 55.1219 54.3363 53.0774 55.8697C51.1353 57.3009 49.9597 60.0099 49.5508 63.9968H25.7828C27.214 45.698 39.8391 36.5486 63.658 36.5486C87.1704 36.5486 98.9266 44.6757 98.9266 60.93V102.946C98.9266 109.591 100 114.446 102.147 117.513ZM57.9843 103.252C63.4024 103.252 67.696 101.872 70.865 99.1121C74.0341 96.2497 75.6186 92.0073 75.6186 86.3848V80.5577C74.1874 82.0912 71.5295 83.1134 67.6448 83.6246L57.831 84.698C50.1642 85.5158 46.3306 88.6849 46.3306 94.2052C46.3306 96.9654 47.3529 99.1633 49.3975 100.799C51.4417 102.435 54.3041 103.252 57.9843 103.252Z" fill="#E5E5E5"></path><path d="M206.666 36.5486C215.355 36.5486 222.153 39.1554 227.06 44.369C231.967 49.4804 234.421 56.7386 234.421 66.1436V117.513H210.499V70.2838C210.499 61.39 206.564 56.9431 198.692 56.9431C194.501 56.9431 191.178 58.3743 188.725 61.2367C186.271 64.099 185.045 68.2904 185.045 73.8107V117.513H161.123V70.2838C161.123 61.39 157.187 56.9431 149.316 56.9431C145.125 56.9431 141.751 58.3743 139.195 61.2367C136.742 64.099 135.515 68.2904 135.515 73.8107V117.513H111.594V38.3887H134.902V49.5827C140.729 40.8933 148.242 36.5486 157.443 36.5486C169.301 36.5486 177.48 41.3022 181.978 50.8094C188.418 41.3022 196.647 36.5486 206.666 36.5486Z" fill="#E5E5E5"></path></svg>