<svg xmlns="http://www.w3.org/2000/svg" width="16" height="16" viewBox="0 0 16 16" fill="none"><path d="M7.85605 2.58275C7.87072 2.55757 7.89174 2.53668 7.91701 2.52216C7.94228 2.50764 7.97091 2.5 8.00005 2.5C8.02919 2.5 8.05783 2.50764 8.08309 2.52216C8.10836 2.53668 8.12938 2.55757 8.14405 2.58275L13.6294 12.0828C13.644 12.1081 13.6517 12.1369 13.6517 12.1662C13.6517 12.1955 13.644 12.2242 13.6293 12.2496C13.6146 12.2749 13.5935 12.2959 13.5682 12.3105C13.5428 12.3252 13.514 12.3328 13.4847 12.3328H2.51538C2.4861 12.3328 2.45732 12.3252 2.43194 12.3105C2.40655 12.2959 2.38547 12.2749 2.3708 12.2496C2.35613 12.2242 2.3484 12.1955 2.34839 12.1662C2.34837 12.1369 2.35608 12.1081 2.37072 12.0828L7.85538 2.58275H7.85605Z" stroke="white" stroke-opacity="0.9"></path></svg>